<svg width="201" height="215" viewBox="0 0 201 215" fill="none" xmlns="http://www.w3.org/2000/svg">
<g clip-path="url(#clip0_2122_2484)">
<path d="M0.125057 212.998L17.3804 175.903C17.568 175.591 17.9431 175.278 18.3182 175.278H18.8809C19.256 175.278 19.6311 175.528 19.8187 175.903L37.074 212.998C37.3866 213.686 36.949 214.437 36.1363 214.437H30.0093C29.009 214.437 28.5714 214.124 28.0712 213.061L26.0706 208.682H11.066L9.06534 213.123C8.81526 213.749 8.19006 214.437 7.06471 214.437H1.06285C0.250096 214.437 -0.187541 213.686 0.125057 212.998ZM22.7571 201.238L18.5683 192.168L14.442 201.238H22.8196H22.7571Z" fill="#111111"/>
<path d="M60.2062 175.841H53.6417C53.0547 175.841 52.5789 176.317 52.5789 176.904V213.374C52.5789 213.961 53.0547 214.437 53.6417 214.437H60.2062C60.7932 214.437 61.2691 213.961 61.2691 213.374V176.904C61.2691 176.317 60.7932 175.841 60.2062 175.841Z" fill="#111111"/>
<path d="M78.3369 212.435L92.9665 184.098V183.973H80.9627C80.4001 183.973 79.8999 183.473 79.8999 182.91V176.904C79.8999 176.341 80.4001 175.841 80.9627 175.841H104.408C104.97 175.841 105.47 176.341 105.47 176.904V177.655L91.2784 206.242V206.368H103.282C103.907 206.368 104.345 206.868 104.345 207.431V213.436C104.345 213.999 103.907 214.5 103.282 214.5H79.3997C78.8371 214.5 78.3369 213.999 78.3369 213.436V212.435Z" fill="#111111"/>
<path d="M117.724 212.998L134.98 175.903C135.167 175.591 135.542 175.278 135.917 175.278H136.48C136.855 175.278 137.23 175.528 137.418 175.903L154.673 212.998C154.986 213.686 154.548 214.437 153.735 214.437H147.608C146.608 214.437 146.171 214.124 145.67 213.061L143.67 208.682H128.665L126.664 213.123C126.414 213.749 125.789 214.437 124.664 214.437H118.599C117.787 214.437 117.349 213.686 117.662 212.998M140.356 201.238L136.167 192.168L132.041 201.238H140.419H140.356Z" fill="#111111"/>
<path d="M187.308 175.278C192.81 175.278 196.874 176.967 200.625 180.407C201.125 180.845 201.125 181.533 200.625 181.971L196.311 186.413C195.936 186.788 195.311 186.788 194.936 186.413C192.872 184.598 190.184 183.598 187.496 183.598C181.244 183.598 176.68 188.79 176.68 194.983C176.68 201.175 181.306 206.18 187.558 206.18C190.122 206.18 192.935 205.241 194.936 203.552C195.311 203.24 196.061 203.24 196.373 203.552L200.687 208.119C201.062 208.494 201 209.245 200.687 209.62C196.936 213.248 192.185 214.937 187.308 214.937C176.305 214.937 167.427 206.18 167.427 195.17C167.427 184.161 176.305 175.278 187.308 175.278Z" fill="#111111"/>
<path d="M193.373 152.758L193.123 117.853H132.104L199.124 0H84.2762V34.8429H142.544L100.781 107.781L122.788 152.758H193.373Z" fill="#111111"/>
<path d="M35.6361 32.5909H42.9509V24.9593H35.3235V31.9028H24.6952V42.8499H35.6361V32.5909Z" fill="#111111"/>
<path d="M51.4535 46.7283C52.2038 45.915 53.079 45.3521 54.0168 44.9767V38.2834H43.2635V48.2921H33.6355V59.9898H45.3266V57.1749H50.5783C48.3276 53.9846 48.8277 49.6058 51.4535 46.6657" fill="#111111"/>
<path d="M32.5726 17.3276H28.8214V21.0809H32.5726V17.3276Z" fill="#111111"/>
<path d="M61.2065 23.1452H57.4553V26.8985H61.2065V23.1452Z" fill="#111111"/>
<path d="M57.8305 7.56909H54.0793V11.3224H57.8305V7.56909Z" fill="#111111"/>
<path d="M71.8348 6.38055H69.4591V8.75763H71.8348V6.38055Z" fill="#111111"/>
<path d="M28.3214 52.2956H24.5702V56.0489H28.3214V52.2956Z" fill="#111111"/>
<path d="M15.8799 45.2269H13.5042V47.604H15.8799V45.2269Z" fill="#111111"/>
<path d="M69.4591 44.9767H67.0834V47.3538H69.4591V44.9767Z" fill="#111111"/>
<path d="M22.8822 25.0219H17.5055V30.4015H22.8822V25.0219Z" fill="#111111"/>
<path d="M53.8293 121.606L68.0212 152.758H105.908L53.7668 37.9706H53.3916L1.81311 152.758H39.6999L53.7042 121.606H53.8293Z" fill="#111111"/>
</g>
<defs>
<clipPath id="clip0_2122_2484">
<rect width="201" height="215" fill="#111111"/>
</clipPath>
</defs>
</svg>
