<svg xmlns="http://www.w3.org/2000/svg" viewBox="0 0 1200 800" preserveAspectRatio="xMidYMid slice">
  <rect width="1200" height="800" fill="#FFED00"/>
  <!-- 虎の縞模様：有機的にうねる黒い帯（短いもの・長いもの・先細りを混在） -->
  <g fill="#111111">
    <!-- 上段の縞 -->
    <path d="M-20,60 C80,38 180,72 280,58 C370,46 440,80 540,66 C610,56 680,82 760,68 L770,92 C690,108 620,82 540,98 C440,114 360,82 280,94 C180,108 80,80 -20,92 Z"/>
    <path d="M780,120 C880,100 970,140 1080,124 C1140,116 1190,132 1230,128 L1230,160 C1180,168 1130,146 1070,160 C960,180 870,140 780,156 Z"/>
    <!-- 中段その1 -->
    <path d="M-20,220 C70,200 140,234 220,218 C290,206 340,232 410,222 L420,256 C350,272 290,242 220,256 C140,272 70,242 -20,260 Z"/>
    <path d="M500,250 C620,228 720,270 840,254 C940,242 1020,272 1130,258 C1170,252 1210,264 1230,260 L1230,294 C1180,304 1130,278 1050,294 C920,316 810,278 690,294 C580,308 510,278 500,288 Z"/>
    <!-- 中段その2 -->
    <path d="M-20,380 C90,358 200,392 310,378 C400,366 470,398 560,386 C620,378 690,406 770,392 L780,422 C690,438 620,410 560,422 C470,436 400,406 310,420 C200,438 90,410 -20,420 Z"/>
    <!-- 下段 -->
    <path d="M820,440 C920,420 1010,450 1110,438 C1160,432 1210,448 1230,444 L1230,476 C1190,484 1140,460 1080,474 C990,492 900,462 820,478 Z"/>
    <path d="M-20,540 C80,520 170,556 270,540 C340,528 410,558 490,544 L500,576 C420,592 350,564 270,580 C170,596 80,566 -20,580 Z"/>
    <path d="M560,580 C680,556 790,594 910,580 C1000,570 1080,598 1180,586 C1210,584 1230,590 1240,588 L1240,618 C1180,628 1110,602 1010,618 C900,636 800,602 680,620 C600,632 560,608 560,616 Z"/>
    <path d="M-20,700 C100,678 220,716 340,700 C440,686 520,716 610,700 C690,686 770,718 860,702 C940,690 1010,718 1110,702 C1170,694 1220,704 1240,700 L1240,732 C1190,744 1130,720 1050,734 C940,752 840,720 740,734 C640,748 540,720 420,734 C300,748 180,720 60,732 C20,738 0,732 -20,734 Z"/>
  </g>
</svg>
